<svg width="9" height="14" viewBox="0 0 9 14" fill="none" xmlns="http://www.w3.org/2000/svg">
<path d="M8.93132 2.31513V1.00113C8.93132 0.887241 8.78853 0.824346 8.6921 0.894041L0.332487 6.87925C0.261461 6.92989 0.203989 6.99472 0.164455 7.06881C0.124921 7.1429 0.10437 7.22429 0.10437 7.30677C0.10437 7.38925 0.124921 7.47064 0.164455 7.54473C0.203989 7.61882 0.261461 7.68365 0.332487 7.73429L8.6921 13.7195C8.79039 13.7892 8.93132 13.7263 8.93132 13.6124V12.2984C8.93132 12.2151 8.88867 12.1352 8.8182 12.0842L2.14238 7.30762L8.8182 2.52931C8.88867 2.47831 8.93132 2.39842 8.93132 2.31513Z" fill="white"/>
</svg>
